<svg width="14" height="14" viewBox="0 0 14 14" fill="none" xmlns="http://www.w3.org/2000/svg">
<path d="M11.6708 0.5C11.6708 0.223933 11.8947 0.000122626 12.1708 0C12.4469 0 12.6708 0.223858 12.6708 0.5V3.70801C12.6708 3.98411 12.4469 4.20795 12.1708 4.20801L8.72351 4.20898C8.44744 4.20895 8.22357 3.98507 8.22351 3.70898C8.22358 3.43296 8.44745 3.20904 8.72351 3.20898L10.8661 3.20801C9.92036 2.47077 8.74521 2.01704 7.49792 1.9209C6.07307 1.81108 4.65574 2.17543 3.4989 2.94434C2.34269 3.71292 1.52451 4.83284 1.18054 6.09863C0.836816 7.36364 0.986038 8.7023 1.60436 9.87793C2.22325 11.0544 3.27513 11.9971 4.58093 12.5293C5.88733 13.0617 7.35708 13.1458 8.72546 12.7656C10.0936 12.3855 11.2643 11.5678 12.035 10.4678C12.805 9.36865 13.1287 8.05605 12.954 6.7627C12.9171 6.48921 13.1083 6.23734 13.3817 6.2002C13.6553 6.16322 13.9072 6.35531 13.9442 6.62891C14.1534 8.17714 13.765 9.74099 12.8544 11.041C11.9443 12.3401 10.5738 13.2893 8.99304 13.7285C7.41265 14.1676 5.71655 14.0715 4.20397 13.4551C2.69093 12.8385 1.45369 11.7385 0.719598 10.3428C-0.0150326 8.94601 -0.194968 7.34854 0.215692 5.83691C0.6262 4.3261 1.59721 3.0084 2.94518 2.1123C4.29258 1.21664 5.93302 0.797262 7.57507 0.923828C9.09581 1.0411 10.5341 1.62038 11.6708 2.57324V0.5Z" fill="#952A58"/>
</svg>
