<svg width="146" height="143" viewBox="0 0 146 143" fill="none" xmlns="http://www.w3.org/2000/svg">
<path d="M54.1014 0.406936L42.6933 4.80226C39.5431 6.016 37.9732 9.55371 39.1869 12.704L87.5355 138.193C88.7492 141.343 92.287 142.913 95.4372 141.699L106.845 137.304C109.996 136.09 111.565 132.553 110.352 129.402L62.0031 3.91332C60.7894 0.763062 57.2517 -0.806801 54.1014 0.406936Z" fill="url(#paint0_linear_9911_11383)"/>
<path d="M133.106 35.4382L7.61683 83.7868C4.46657 85.0005 2.8967 88.5382 4.11044 91.6885L8.50576 103.097C9.7195 106.247 13.2572 107.817 16.4075 106.603L141.897 58.2544C145.047 57.0407 146.617 53.5029 145.403 50.3527L141.008 38.9446C139.794 35.7943 136.256 34.2245 133.106 35.4382Z" fill="url(#paint1_linear_9911_11383)"/>
<path d="M110.131 6.53087L98.9564 1.57209C95.8705 0.202759 92.2589 1.59425 90.8896 4.68006L36.343 127.602C34.9737 130.688 36.3651 134.299 39.451 135.669L50.6257 140.627C53.7115 141.997 57.3231 140.605 58.6924 137.519L113.239 14.5976C114.608 11.5118 113.217 7.9002 110.131 6.53087Z" fill="url(#paint2_linear_9911_11383)"/>
<path d="M5.48571 35.1234L0.526931 46.2981C-0.842399 49.3839 0.549083 52.9955 3.63489 54.3649L126.557 108.911C129.643 110.281 133.254 108.889 134.623 105.804L139.582 94.6288C140.952 91.543 139.56 87.9314 136.474 86.562L13.5525 32.0154C10.4666 30.6461 6.85504 32.0376 5.48571 35.1234Z" fill="url(#paint3_linear_9911_11383)"/>
<defs>
<linearGradient id="paint0_linear_9911_11383" x1="48.3973" y1="2.60462" x2="101.141" y2="139.502" gradientUnits="userSpaceOnUse">
<stop stop-color="#6B0330"/>
<stop offset="1" stop-color="#F569A5"/>
</linearGradient>
<linearGradient id="paint1_linear_9911_11383" x1="48.3973" y1="2.60462" x2="101.141" y2="139.502" gradientUnits="userSpaceOnUse">
<stop stop-color="#6B0330"/>
<stop offset="1" stop-color="#F569A5"/>
</linearGradient>
<linearGradient id="paint2_linear_9911_11383" x1="48.3973" y1="2.60462" x2="101.141" y2="139.502" gradientUnits="userSpaceOnUse">
<stop stop-color="#6B0330"/>
<stop offset="1" stop-color="#F569A5"/>
</linearGradient>
<linearGradient id="paint3_linear_9911_11383" x1="48.3973" y1="2.60462" x2="101.141" y2="139.502" gradientUnits="userSpaceOnUse">
<stop stop-color="#6B0330"/>
<stop offset="1" stop-color="#F569A5"/>
</linearGradient>
</defs>
</svg>
