<svg width="7" height="6" viewBox="0 0 7 6" fill="none" xmlns="http://www.w3.org/2000/svg">
<path d="M0 0.464574C0 0.154858 0.154858 0 0.464574 0H1.62601V0.464574H0.464574V4.64574H1.62601V5.11032H0.464574C0.154858 5.11032 0 4.95546 0 4.64574V0.464574Z" fill="white"/>
<path d="M3.60063 1.16406H3.36834C3.3042 1.16406 3.2522 1.21606 3.2522 1.28021V3.83536C3.2522 3.89951 3.3042 3.95151 3.36834 3.95151H3.60063C3.66477 3.95151 3.71677 3.89951 3.71677 3.83536V1.28021C3.71677 1.21606 3.66477 1.16406 3.60063 1.16406Z" fill="white"/>
<path d="M4.76261 2.32812H2.20745C2.14331 2.32812 2.09131 2.38012 2.09131 2.44427V2.67656C2.09131 2.7407 2.14331 2.7927 2.20745 2.7927H4.76261C4.82676 2.7927 4.87875 2.7407 4.87875 2.67656V2.44427C4.87875 2.38012 4.82676 2.32812 4.76261 2.32812Z" fill="white"/>
<path d="M4.55229 1.66044L4.38803 1.49619C4.34268 1.45083 4.26914 1.45083 4.22378 1.49619L2.41701 3.30296C2.37165 3.34832 2.37165 3.42185 2.41701 3.46721L2.58126 3.63146C2.62662 3.67682 2.70016 3.67682 2.74552 3.63146L4.55229 1.82469C4.59764 1.77934 4.59764 1.7058 4.55229 1.66044Z" fill="white"/>
<path d="M2.58061 1.50362L2.41635 1.66787C2.371 1.71323 2.371 1.78677 2.41635 1.83213L4.22313 3.6389C4.26848 3.68425 4.34202 3.68425 4.38738 3.6389L4.55163 3.47464C4.59699 3.42929 4.59699 3.35575 4.55163 3.31039L2.74486 1.50362C2.6995 1.45827 2.62596 1.45827 2.58061 1.50362Z" fill="white"/>
<path d="M6.96903 0.464574C6.96903 0.154858 6.81417 0 6.50445 0H5.34302V0.464574H6.50445V4.64574H5.34302V5.11032H6.50445C6.81417 5.11032 6.96903 4.95546 6.96903 4.64574V0.464574Z" fill="white"/>
</svg>
