<svg width="15" height="12" viewBox="0 0 15 12" fill="none" xmlns="http://www.w3.org/2000/svg">
<path d="M0 4.014C0.42174 3.85351 0.791229 3.70236 1.10847 3.56053C1.42571 3.41498 1.70376 3.26569 1.94262 3.11267C2.18148 2.95591 2.39235 2.7861 2.57523 2.60322C2.75811 2.42034 2.92606 2.2076 3.07908 1.96501C3.2321 1.72242 3.37952 1.4425 3.52134 1.12526C3.6669 0.804292 3.81992 0.429205 3.98041 0C4.14089 0.429205 4.29205 0.804292 4.43387 1.12526C4.57943 1.4425 4.72871 1.72242 4.88174 1.96501C5.03476 2.2076 5.20084 2.42034 5.37999 2.60322C5.56286 2.7861 5.77374 2.95591 6.0126 3.11267C6.25519 3.26569 6.53324 3.41498 6.84675 3.56053C7.16398 3.70236 7.53347 3.85351 7.95521 4.014C7.53347 4.17821 7.16398 4.33123 6.84675 4.47306C6.53324 4.61488 6.25519 4.76417 6.0126 4.92092C5.77374 5.07395 5.56286 5.24189 5.37999 5.42477C5.20084 5.60765 5.03476 5.82039 4.88174 6.06298C4.72871 6.30558 4.57943 6.58736 4.43387 6.90833C4.29205 7.22557 4.14089 7.59879 3.98041 8.02799C3.81619 7.59879 3.66317 7.22557 3.52134 6.90833C3.37952 6.58736 3.2321 6.30558 3.07908 6.06298C2.92606 5.82039 2.75811 5.60765 2.57523 5.42477C2.39235 5.24189 2.18148 5.07395 1.94262 4.92092C1.70376 4.76417 1.42571 4.61488 1.10847 4.47306C0.791229 4.3275 0.42174 4.17448 0 4.014Z" fill="white"/>
<path d="M8.02563 8.02555C8.39033 7.88803 8.70984 7.7585 8.98417 7.63697C9.2585 7.51224 9.49895 7.38432 9.7055 7.25319C9.91205 7.11887 10.0944 6.97336 10.2525 6.81665C10.4107 6.65994 10.5559 6.47764 10.6882 6.26976C10.8206 6.06188 10.9481 5.82202 11.0707 5.55018C11.1966 5.27514 11.3289 4.95372 11.4677 4.58594C11.6064 4.95372 11.7372 5.27514 11.8598 5.55018C11.9857 5.82202 12.1148 6.06188 12.2471 6.26976C12.3794 6.47764 12.523 6.65994 12.6779 6.81665C12.8361 6.97336 13.0184 7.11887 13.225 7.25319C13.4348 7.38432 13.6752 7.51224 13.9463 7.63697C14.2206 7.7585 14.5402 7.88803 14.9049 8.02555C14.5402 8.16626 14.2206 8.29739 13.9463 8.41892C13.6752 8.54045 13.4348 8.66837 13.225 8.8027C13.0184 8.93382 12.8361 9.07774 12.6779 9.23445C12.523 9.39115 12.3794 9.57345 12.2471 9.78133C12.1148 9.98921 11.9857 10.2307 11.8598 10.5057C11.7372 10.7776 11.6064 11.0974 11.4677 11.4652C11.3257 11.0974 11.1933 10.7776 11.0707 10.5057C10.9481 10.2307 10.8206 9.98921 10.6882 9.78133C10.5559 9.57345 10.4107 9.39115 10.2525 9.23445C10.0944 9.07774 9.91205 8.93382 9.7055 8.8027C9.49895 8.66837 9.2585 8.54045 8.98417 8.41892C8.70984 8.29419 8.39033 8.16307 8.02563 8.02555Z" fill="white"/>
</svg>
