<svg width="14" height="14" viewBox="0 0 14 14" fill="none" xmlns="http://www.w3.org/2000/svg">
<path d="M9.98653 8.48166L12.9832 11.5084C13.0194 11.545 13.0445 11.5912 13.0557 11.6417C13.0668 11.6922 13.0634 11.7448 13.046 11.7935C13.0285 11.8421 12.9978 11.8847 12.9572 11.9163C12.9167 11.9479 12.8681 11.9671 12.8171 11.9718L9.52011 12.2751C9.48078 12.2787 9.44116 12.2735 9.40403 12.26C9.36691 12.2464 9.33319 12.2247 9.30527 12.1965C9.27735 12.1683 9.25591 12.1343 9.24246 12.0968C9.22901 12.0593 9.22389 12.0193 9.22745 11.9795L9.52773 8.64947C9.53238 8.59797 9.55146 8.54887 9.58273 8.50793C9.61401 8.46698 9.65618 8.43589 9.70433 8.41828C9.75247 8.40067 9.80458 8.39728 9.85456 8.4085C9.90454 8.41973 9.95031 8.4451 9.98653 8.48166ZM0.0788496 1.55365L3.07554 4.58042C3.11176 4.61697 3.15754 4.64235 3.20752 4.65357C3.2575 4.66479 3.30961 4.66141 3.35775 4.6438C3.40589 4.62619 3.44807 4.59509 3.47934 4.55415C3.51062 4.5132 3.5297 4.46411 3.53434 4.41261L3.83462 1.08254C3.83818 1.04282 3.83306 1.0028 3.81961 0.965301C3.80616 0.927804 3.78472 0.89375 3.7568 0.86555C3.72888 0.83735 3.69516 0.815692 3.65804 0.802108C3.62092 0.788525 3.58129 0.783349 3.54197 0.786946L0.244994 1.09024C0.194005 1.09493 0.145396 1.1142 0.104859 1.14579C0.0643213 1.17738 0.033533 1.21998 0.0161 1.26861C-0.00133302 1.31723 -0.00468912 1.36986 0.00642394 1.42035C0.017537 1.47083 0.0426593 1.51707 0.0788496 1.55365Z" fill="white"/>
<path fill-rule="evenodd" clip-rule="evenodd" d="M10.3417 2.68214C9.15886 1.48744 7.5622 0.963226 6.0166 1.11256C5.94494 1.1219 5.87216 1.11658 5.80258 1.09694C5.733 1.07729 5.66804 1.04371 5.61156 0.9982C5.55509 0.952688 5.50825 0.89617 5.47383 0.832007C5.43941 0.767844 5.41812 0.697347 5.41122 0.624706C5.40432 0.552065 5.41195 0.478764 5.43366 0.409162C5.45537 0.33956 5.49072 0.275078 5.53759 0.219549C5.58447 0.16402 5.64193 0.11858 5.70654 0.0859281C5.77115 0.0532767 5.84161 0.0340813 5.91371 0.0294836C7.14734 -0.0892803 8.38879 0.152341 9.49039 0.72561C10.592 1.29888 11.5074 2.17967 12.1277 3.26322C12.748 4.34677 13.0472 5.58749 12.9896 6.83779C12.9319 8.0881 12.52 9.29538 11.8027 10.316L11.0276 9.53318C11.7126 8.48636 12.0185 7.23263 11.8935 5.98418C11.7685 4.73574 11.2203 3.56925 10.3417 2.68214ZM2.03447 3.5289C1.47407 4.38638 1.16529 5.38651 1.1438 6.41374C1.12231 7.44096 1.389 8.45337 1.91305 9.33399C2.4371 10.2146 3.19712 10.9275 4.10532 11.3903C5.01351 11.8532 6.03282 12.047 7.04547 11.9495C7.11713 11.9402 7.18991 11.9455 7.25949 11.9651C7.32908 11.9848 7.39404 12.0184 7.45051 12.0639C7.50699 12.1094 7.55383 12.1659 7.58824 12.2301C7.62266 12.2942 7.64395 12.3647 7.65085 12.4374C7.65775 12.51 7.65012 12.5833 7.62841 12.6529C7.6067 12.7225 7.57136 12.787 7.52448 12.8425C7.4776 12.8981 7.42015 12.9435 7.35554 12.9761C7.29092 13.0088 7.22047 13.028 7.14836 13.0326C5.91473 13.1514 4.67329 12.9097 3.57168 12.3365C2.47008 11.7632 1.55467 10.8824 0.93435 9.79885C0.314025 8.7153 0.0148833 7.47459 0.0725053 6.22428C0.130127 4.97398 0.542087 3.7667 1.25939 2.74603L2.03447 3.5289Z" fill="white"/>
</svg>
