<svg width="24" height="18" viewBox="0 0 24 18" fill="none" xmlns="http://www.w3.org/2000/svg">
<path d="M0 1.5862C0 0.528734 0.528734 0 1.5862 0H5.55171V1.5862H1.5862V15.862H5.55171V17.4482H1.5862C0.528734 17.4482 0 16.9195 0 15.862V1.5862Z" fill="#952A58"/>
<path d="M12.2929 3.97656H11.4998C11.2808 3.97656 11.1033 4.1541 11.1033 4.37311V13.0972C11.1033 13.3162 11.2808 13.4938 11.4998 13.4938H12.2929C12.5119 13.4938 12.6895 13.3162 12.6895 13.0972V4.37311C12.6895 4.1541 12.5119 3.97656 12.2929 3.97656Z" fill="#952A58"/>
<path d="M16.2586 7.94531H7.53449C7.31548 7.94531 7.13794 8.12285 7.13794 8.34186V9.13496C7.13794 9.35397 7.31548 9.53152 7.53449 9.53152H16.2586C16.4776 9.53152 16.6552 9.35397 16.6552 9.13496V8.34186C16.6552 8.12285 16.4776 7.94531 16.2586 7.94531Z" fill="#952A58"/>
<path d="M15.5419 5.63809L14.9811 5.07728C14.8262 4.92242 14.5751 4.92242 14.4203 5.07728L8.2514 11.2462C8.09654 11.401 8.09654 11.6521 8.2514 11.807L8.81221 12.3678C8.96707 12.5226 9.21815 12.5226 9.37301 12.3678L15.5419 6.19889C15.6968 6.04403 15.6968 5.79295 15.5419 5.63809Z" fill="#952A58"/>
<path d="M8.81167 5.08066L8.25086 5.64147C8.096 5.79633 8.096 6.04742 8.25086 6.20228L14.4197 12.3712C14.5746 12.526 14.8257 12.526 14.9806 12.3712L15.5414 11.8104C15.6962 11.6555 15.6962 11.4044 15.5414 11.2495L9.37248 5.08066C9.21761 4.9258 8.96653 4.9258 8.81167 5.08066Z" fill="#952A58"/>
<path d="M23.7927 1.5862C23.7927 0.528734 23.2639 0 22.2065 0H18.241V1.5862H22.2065V15.862H18.241V17.4482H22.2065C23.2639 17.4482 23.7927 16.9195 23.7927 15.862V1.5862Z" fill="#952A58"/>
</svg>
