<svg width="42" height="8" viewBox="0 0 42 8" fill="none" xmlns="http://www.w3.org/2000/svg">
<path d="M9.94373 1.52392H10.9154V5.22609H12.7162V6.06168H9.94373V1.52392Z" fill="#EDE5E9"/>
<path d="M13.1537 5.29092C13.0049 5.0168 12.93 4.70871 12.9363 4.39689C12.93 4.08507 13.0049 3.77697 13.1537 3.50285C13.2951 3.24672 13.5093 3.03826 13.7692 2.90379C14.0572 2.76495 14.3727 2.69285 14.6924 2.69285C15.0121 2.69285 15.3277 2.76495 15.6157 2.90379C15.8752 3.03879 16.0892 3.24712 16.2312 3.50285C16.3792 3.77721 16.4538 4.0852 16.4476 4.39689C16.4546 4.70982 16.38 5.01918 16.2312 5.29458C16.0883 5.54866 15.8744 5.75557 15.6157 5.88999C15.3277 6.02883 15.0121 6.10093 14.6924 6.10093C14.3727 6.10093 14.0572 6.02883 13.7692 5.88999C13.5093 5.75552 13.2951 5.54705 13.1537 5.29092ZM15.5216 4.39689C15.5319 4.14598 15.4512 3.89982 15.2942 3.70376C15.2204 3.61729 15.1278 3.54876 15.0235 3.50336C14.9193 3.45795 14.8061 3.43685 14.6924 3.44167C14.5789 3.4371 14.4658 3.45869 14.362 3.50477C14.2581 3.55084 14.1662 3.62018 14.0934 3.70741C13.9374 3.90378 13.8579 4.15004 13.8696 4.40054C13.8579 4.65104 13.9374 4.8973 14.0934 5.09367C14.1662 5.1809 14.2581 5.25024 14.362 5.29631C14.4658 5.34239 14.5789 5.36398 14.6924 5.35941C14.8066 5.36334 14.9202 5.34111 15.0245 5.29442C15.1288 5.24773 15.2211 5.17781 15.2942 5.09002C15.4512 4.89396 15.5319 4.64779 15.5216 4.39689Z" fill="#EDE5E9"/>
<path d="M17.0403 5.29093C16.8915 5.01681 16.8166 4.70871 16.823 4.39689C16.8166 4.08507 16.8915 3.77698 17.0403 3.50286C17.1818 3.24673 17.3959 3.03826 17.6558 2.90379C17.9436 2.76497 18.2591 2.69287 18.5786 2.69287C18.8982 2.69287 19.2136 2.76497 19.5014 2.90379C19.7613 3.03826 19.9755 3.24673 20.1169 3.50286C20.2657 3.77698 20.3406 4.08507 20.3343 4.39689C20.3413 4.70995 20.2664 5.01942 20.1169 5.29458C19.9745 5.54906 19.7605 5.7561 19.5014 5.88999C19.2136 6.02882 18.8982 6.10092 18.5786 6.10092C18.2591 6.10092 17.9436 6.02882 17.6558 5.88999C17.3959 5.75552 17.1818 5.54706 17.0403 5.29093ZM19.4083 4.39689C19.4196 4.14645 19.3401 3.90033 19.1845 3.70376C19.108 3.62004 19.0149 3.55317 18.9111 3.50742C18.8074 3.46167 18.6952 3.43804 18.5818 3.43804C18.4684 3.43804 18.3562 3.46167 18.2525 3.50742C18.1487 3.55317 18.0556 3.62004 17.9791 3.70376C17.8251 3.90097 17.7473 4.14702 17.7599 4.39689C17.7483 4.64722 17.8275 4.89333 17.9827 5.09002C18.0592 5.17375 18.1523 5.24061 18.2561 5.28636C18.3599 5.33212 18.472 5.35574 18.5855 5.35574C18.6989 5.35574 18.811 5.33212 18.9148 5.28636C19.0186 5.24061 19.1117 5.17375 19.1882 5.09002C19.3425 4.89295 19.4206 4.64688 19.4083 4.39689Z" fill="#EDE5E9"/>
<path d="M21.7525 1.52392V4.15032L23.0611 2.7321H24.0848L22.8976 4.03435L24.1524 6.06168H23.094L22.252 4.71469L21.7525 5.25166V6.06168H20.8393V1.52392H21.7525Z" fill="#EDE5E9"/>
<path d="M25.2766 5.3101C25.424 5.40794 25.5984 5.45712 25.7752 5.45074C25.9326 5.45885 26.0896 5.42746 26.2318 5.35942C26.2842 5.33571 26.3284 5.29708 26.359 5.24834C26.3895 5.19961 26.405 5.14295 26.4035 5.08545C26.4063 5.04926 26.4007 5.0129 26.3873 4.97918C26.3738 4.94546 26.3528 4.91527 26.3258 4.89094C26.2609 4.84329 26.1854 4.81196 26.1058 4.79962C26.0144 4.78044 25.8555 4.75761 25.6391 4.73204C25.392 4.70235 25.1476 4.65257 24.9085 4.58319C24.7302 4.5319 24.569 4.43347 24.4419 4.29827C24.3198 4.15383 24.2571 3.96843 24.2666 3.77956C24.2642 3.57373 24.3282 3.37261 24.4492 3.20606C24.5767 3.03292 24.7505 2.89933 24.9506 2.82069C25.1874 2.72624 25.4408 2.67998 25.6957 2.68462C26.1493 2.68888 26.5146 2.78599 26.7916 2.97593C26.9246 3.06191 27.035 3.17867 27.1134 3.31633C27.1917 3.45398 27.2358 3.60849 27.2418 3.76678H26.3742C26.3673 3.70376 26.3458 3.6432 26.3116 3.58982C26.2774 3.53644 26.2313 3.49168 26.177 3.45902C26.0402 3.37423 25.8811 3.33255 25.7204 3.33939C25.575 3.33265 25.4306 3.36614 25.303 3.43619C25.2554 3.46083 25.2155 3.49802 25.1875 3.54373C25.1595 3.58944 25.1445 3.64194 25.1441 3.69555C25.1421 3.72938 25.1487 3.76318 25.1634 3.79372C25.1781 3.82425 25.2004 3.85051 25.2282 3.86997C25.2948 3.91327 25.3698 3.9422 25.4483 3.9549C25.5396 3.97134 25.6903 3.99143 25.9049 4.01243C26.3542 4.06479 26.6987 4.16098 26.9386 4.301C27.1779 4.44164 27.2975 4.68181 27.2975 5.02336C27.3007 5.2295 27.2333 5.43054 27.1066 5.5932C26.9676 5.76587 26.7837 5.89697 26.5752 5.97218C26.3234 6.06537 26.0564 6.11059 25.788 6.10551C25.3259 6.10551 24.9502 6.00293 24.6611 5.79776C24.5236 5.70437 24.4104 5.57949 24.331 5.4335C24.2516 5.28752 24.2082 5.12467 24.2045 4.95852H25.0656C25.0718 5.02928 25.094 5.0977 25.1306 5.15861C25.1671 5.21953 25.217 5.27133 25.2766 5.3101Z" fill="#EDE5E9"/>
<path d="M29.4025 6.10095C29.0872 6.10808 28.7753 6.03552 28.4956 5.89C28.2412 5.75385 28.0327 5.5454 27.8966 5.29093C27.7527 5.01524 27.6805 4.7078 27.6865 4.39689C27.6796 4.08502 27.7519 3.77649 27.8966 3.50012C28.0341 3.24614 28.2439 3.03863 28.4993 2.90379C28.7812 2.75793 29.0952 2.68538 29.4125 2.69284C29.8575 2.69284 30.2201 2.80638 30.5001 3.03347C30.7866 3.27022 30.9721 3.60722 31.0188 3.9759H30.07C30.0385 3.8229 29.9565 3.68493 29.8371 3.58413C29.7146 3.48455 29.5602 3.43265 29.4025 3.43802C29.2933 3.43434 29.1847 3.45648 29.0857 3.50266C28.9867 3.54884 28.9 3.61774 28.8326 3.70376C28.683 3.90296 28.6075 4.14804 28.6189 4.39689C28.6075 4.64575 28.683 4.89082 28.8326 5.09002C28.8996 5.17671 28.9861 5.24632 29.0852 5.29314C29.1842 5.33996 29.2929 5.36268 29.4025 5.35942C29.5635 5.36508 29.7212 5.3122 29.8463 5.21056C29.9682 5.10549 30.0496 4.9611 30.0764 4.80236H31.0161C30.9734 5.17508 30.789 5.5171 30.501 5.75758C30.218 5.98649 29.8518 6.10095 29.4025 6.10095Z" fill="#EDE5E9"/>
<path d="M31.5494 5.29093C31.4007 5.01681 31.3258 4.70871 31.3321 4.39689C31.3258 4.08507 31.4007 3.77698 31.5494 3.50286C31.6909 3.24673 31.9051 3.03826 32.1649 2.90379C32.4527 2.76497 32.7682 2.69287 33.0877 2.69287C33.4073 2.69287 33.7227 2.76497 34.0105 2.90379C34.2704 3.03826 34.4846 3.24673 34.626 3.50286C34.7748 3.77698 34.8497 4.08507 34.8434 4.39689C34.8505 4.70995 34.7755 5.01942 34.626 5.29458C34.4848 5.54841 34.2725 5.75538 34.0151 5.88999C33.7273 6.02882 33.4118 6.10092 33.0923 6.10092C32.7727 6.10092 32.4573 6.02882 32.1695 5.88999C31.9079 5.75625 31.6921 5.54772 31.5494 5.29093ZM33.9174 4.39689C33.9287 4.14645 33.8492 3.90033 33.6936 3.70376C33.6171 3.62004 33.524 3.55317 33.4203 3.50742C33.3165 3.46167 33.2043 3.43804 33.0909 3.43804C32.9775 3.43804 32.8653 3.46167 32.7616 3.50742C32.6578 3.55317 32.5647 3.62004 32.4882 3.70376C32.3329 3.90046 32.2538 4.14656 32.2654 4.39689C32.2538 4.64722 32.3329 4.89333 32.4882 5.09002C32.5647 5.17375 32.6578 5.24061 32.7616 5.28636C32.8653 5.33212 32.9775 5.35574 33.0909 5.35574C33.2043 5.35574 33.3165 5.33212 33.4203 5.28636C33.524 5.24061 33.6171 5.17375 33.6936 5.09002C33.8496 4.89358 33.9293 4.64745 33.9183 4.39689H33.9174Z" fill="#EDE5E9"/>
<path d="M38.4843 6.06168H37.6752L37.5903 5.65986C37.4734 5.805 37.3239 5.92056 37.154 5.99719C36.984 6.07382 36.7985 6.10936 36.6123 6.10094C36.4374 6.10762 36.2629 6.07923 36.0992 6.01743C35.9354 5.95564 35.7857 5.86169 35.6589 5.74114C35.4153 5.50188 35.2936 5.10128 35.2936 4.53935V2.7321H36.2068V4.42885C36.2068 4.73204 36.2598 4.95943 36.3657 5.11285C36.4208 5.18988 36.4947 5.25149 36.5804 5.29178C36.6661 5.33208 36.7607 5.3497 36.8552 5.34298C36.9579 5.3476 37.0601 5.32666 37.1527 5.28203C37.2453 5.2374 37.3254 5.17048 37.3858 5.08728C37.5118 4.91651 37.5739 4.67724 37.5739 4.37132V2.7321H38.4871L38.4843 6.06168Z" fill="#EDE5E9"/>
<path d="M38.8085 3.50286V2.7321H39.3565V1.79789H40.2697V2.7321H41.0276V3.50286H40.2697V4.964C40.2615 5.05464 40.2879 5.14502 40.3436 5.21695C40.3781 5.24594 40.4179 5.26775 40.4609 5.28108C40.5039 5.29441 40.5491 5.299 40.5939 5.29458H41.066V6.06533H40.3163C39.6807 6.06533 39.3632 5.74784 39.3638 5.11285V3.50286H38.8085Z" fill="#EDE5E9"/>
<path d="M4.74189 0.82132L0 3.55905V1.91641L3.32038 0L4.74189 0.82132Z" fill="#EDE5E9"/>
<path d="M6.64076 1.91641V2.86409L0.82132 6.22308L0 5.74924V4.85772L5.86507 1.47065L6.64076 1.91641Z" fill="#EDE5E9"/>
<path d="M1.94449 6.87241L6.64076 4.16276V5.74924L3.32038 7.66565L1.94449 6.87241Z" fill="#EDE5E9"/>
</svg>
