<svg width="9" height="9" viewBox="0 0 9 9" fill="none" xmlns="http://www.w3.org/2000/svg">
<path d="M4.43066 0H3.74902C3.56079 0 3.4082 0.15259 3.4082 0.34082V7.83886C3.4082 8.02709 3.56079 8.17968 3.74902 8.17968H4.43066C4.61889 8.17968 4.77148 8.02709 4.77148 7.83886V0.34082C4.77148 0.15259 4.61889 0 4.43066 0Z" fill="#952A58"/>
<path d="M7.83886 3.40625H0.34082C0.15259 3.40625 0 3.55884 0 3.74707V4.42871C0 4.61694 0.15259 4.76953 0.34082 4.76953H7.83886C8.02709 4.76953 8.17968 4.61694 8.17968 4.42871V3.74707C8.17968 3.55884 8.02709 3.40625 7.83886 3.40625Z" fill="#952A58"/>
<path d="M7.22274 1.44174L6.74075 0.959746C6.60765 0.826648 6.39186 0.826648 6.25876 0.959746L0.956843 6.26166C0.823745 6.39476 0.823745 6.61056 0.956843 6.74366L1.43884 7.22565C1.57193 7.35875 1.78773 7.35875 1.92083 7.22565L7.22274 1.92373C7.35584 1.79063 7.35584 1.57484 7.22274 1.44174Z" fill="#952A58"/>
<path d="M1.20541 0.831699L0.723418 1.31369C0.59032 1.44679 0.59032 1.66259 0.723418 1.79568L6.02533 7.0976C6.15843 7.2307 6.37423 7.2307 6.50733 7.0976L6.98932 6.61561C7.12242 6.48251 7.12242 6.26671 6.98932 6.13362L1.6874 0.831699C1.5543 0.6986 1.33851 0.6986 1.20541 0.831699Z" fill="#952A58"/>
</svg>
