<svg width="13" height="4" viewBox="0 0 13 4" fill="none" xmlns="http://www.w3.org/2000/svg">
<path d="M11.7725 3.37411C11.5758 3.37411 11.4067 3.34491 11.2653 3.28651C11.1239 3.2281 11.0086 3.15125 10.9195 3.05596C10.8334 2.96067 10.7689 2.85616 10.7258 2.74242L11.2146 2.52571C11.2699 2.64559 11.3452 2.73627 11.4405 2.79775C11.5389 2.85923 11.6511 2.88997 11.7771 2.88997C11.8878 2.88997 11.9846 2.87153 12.0676 2.83464C12.1537 2.79468 12.1967 2.72859 12.1967 2.63637C12.1967 2.57182 12.1752 2.5211 12.1322 2.48421C12.0922 2.44425 12.0399 2.41197 11.9754 2.38738C11.9108 2.36279 11.8401 2.34281 11.7633 2.32744L11.482 2.26288C11.3683 2.23829 11.2607 2.19526 11.1593 2.13378C11.0609 2.0723 10.9794 1.99545 10.9149 1.90323C10.8534 1.80794 10.8227 1.69728 10.8227 1.57125C10.8227 1.42985 10.8642 1.30689 10.9472 1.20237C11.0302 1.09786 11.1408 1.01794 11.2791 0.962607C11.4175 0.904202 11.5696 0.875 11.7356 0.875C11.8862 0.875 12.023 0.893444 12.146 0.930331C12.272 0.967218 12.3796 1.02409 12.4688 1.10093C12.561 1.17471 12.6332 1.27 12.6855 1.38681L12.2152 1.5943C12.1629 1.49594 12.0953 1.42677 12.0123 1.38681C11.9293 1.34685 11.8386 1.32687 11.7402 1.32687C11.6296 1.32687 11.5389 1.34992 11.4682 1.39603C11.4006 1.43907 11.3667 1.4944 11.3667 1.56203C11.3667 1.62965 11.399 1.68652 11.4636 1.73263C11.5312 1.77566 11.6111 1.80948 11.7033 1.83407L12.0492 1.91707C12.2797 1.9724 12.4534 2.06154 12.5702 2.1845C12.6901 2.30438 12.75 2.4504 12.75 2.62254C12.75 2.77316 12.7054 2.90534 12.6163 3.01907C12.5302 3.13281 12.4134 3.22042 12.2659 3.2819C12.1183 3.34337 11.9539 3.37411 11.7725 3.37411Z" fill="#EDE5E9"/>
<path d="M9.71997 3.30141V0H10.2687V3.30141H9.71997Z" fill="#EDE5E9"/>
<path d="M7.85809 3.37411C7.68902 3.37411 7.53994 3.34184 7.41083 3.27729C7.28173 3.20966 7.18029 3.1159 7.10651 2.99602C7.03274 2.87614 6.99585 2.73935 6.99585 2.58565C6.99585 2.41966 7.03889 2.27825 7.12496 2.16144C7.21103 2.04156 7.3263 1.95088 7.47077 1.8894C7.61525 1.82485 7.77663 1.79257 7.95492 1.79257C8.05021 1.79257 8.13782 1.79872 8.21774 1.81102C8.30074 1.82331 8.37298 1.83868 8.43445 1.85712C8.49901 1.87557 8.54973 1.89401 8.58661 1.91246V1.80179C8.58661 1.66039 8.53436 1.54666 8.42984 1.46059C8.3284 1.37144 8.19315 1.32687 8.02408 1.32687C7.90727 1.32687 7.79661 1.353 7.6921 1.40526C7.58758 1.45751 7.50151 1.52821 7.43389 1.61736L7.06962 1.33148C7.1434 1.23619 7.22947 1.15473 7.32784 1.0871C7.4262 1.0164 7.53686 0.964144 7.65982 0.930331C7.78278 0.893444 7.91035 0.875 8.04253 0.875C8.39296 0.875 8.66039 0.959533 8.84483 1.1286C9.03234 1.29459 9.12609 1.53282 9.12609 1.84329V3.30034H8.58661V3.03752H8.55434C8.51438 3.09592 8.46058 3.15125 8.39296 3.20351C8.32533 3.25269 8.24694 3.29266 8.1578 3.32339C8.06866 3.35721 7.96875 3.37411 7.85809 3.37411ZM7.97336 2.93608C8.09939 2.93608 8.20852 2.90841 8.30074 2.85308C8.39296 2.79468 8.46366 2.71936 8.51284 2.62715C8.56202 2.53185 8.58661 2.43195 8.58661 2.32744C8.51899 2.28748 8.43907 2.25674 8.34685 2.23522C8.2577 2.2137 8.16395 2.20294 8.06558 2.20294C7.875 2.20294 7.74128 2.23983 7.66443 2.3136C7.58758 2.38738 7.54916 2.47806 7.54916 2.58565C7.54916 2.68709 7.58605 2.77162 7.65982 2.83925C7.7336 2.9038 7.83811 2.93608 7.97336 2.93608Z" fill="#EDE5E9"/>
<path d="M5.08008 1.42015V0.945221H5.5135V1.42015H5.08008ZM6.23742 3.33367C6.00687 3.33367 5.82397 3.26758 5.68872 3.1354C5.55654 3.00015 5.49045 2.81418 5.49045 2.57748V0.28125H6.03915V2.47143C6.03915 2.59132 6.06374 2.67892 6.11292 2.73426C6.16211 2.78959 6.23895 2.81725 6.34347 2.81725C6.39265 2.81725 6.43876 2.8111 6.4818 2.79881C6.52483 2.78344 6.57555 2.75731 6.63396 2.72042V3.2599C6.5694 3.28449 6.50485 3.30293 6.4403 3.31523C6.37574 3.32753 6.30812 3.33367 6.23742 3.33367ZM6.0207 1.42015V0.945221H6.62012V1.42015H6.0207Z" fill="#EDE5E9"/>
<path d="M3.69946 3.37411C3.46277 3.37411 3.2522 3.32032 3.06776 3.21273C2.8864 3.10514 2.74346 2.9576 2.63895 2.77008C2.53443 2.58257 2.48218 2.36894 2.48218 2.12917C2.48218 1.90477 2.5329 1.69728 2.63434 1.50669C2.73578 1.31611 2.87564 1.16395 3.05393 1.05021C3.23222 0.933405 3.43817 0.875 3.67179 0.875C3.92078 0.875 4.12981 0.928794 4.29888 1.03638C4.47102 1.1409 4.60166 1.28383 4.6908 1.4652C4.77995 1.64349 4.82452 1.84483 4.82452 2.06923C4.82452 2.10919 4.82298 2.14607 4.81991 2.17989C4.81684 2.21063 4.81376 2.23368 4.81069 2.24905H2.79111V1.8479H4.28504C4.28197 1.79257 4.2666 1.7357 4.23894 1.6773C4.21434 1.61582 4.17592 1.55895 4.12366 1.50669C4.07141 1.45444 4.00839 1.41294 3.93462 1.3822C3.86084 1.34839 3.77477 1.33148 3.6764 1.33148C3.55037 1.33148 3.43664 1.36529 3.3352 1.43292C3.23376 1.49747 3.15537 1.58815 3.10004 1.70496C3.04471 1.8187 3.01704 1.95395 3.01704 2.11072C3.01704 2.27979 3.04778 2.42273 3.10926 2.53954C3.17381 2.65328 3.25835 2.73935 3.36286 2.79775C3.46738 2.85616 3.58265 2.88536 3.70868 2.88536C3.8593 2.88536 3.98534 2.85154 4.08678 2.78392C4.19129 2.71629 4.27275 2.63176 4.33115 2.53032L4.77841 2.75164C4.67082 2.93915 4.52789 3.08977 4.3496 3.20351C4.17438 3.31725 3.95767 3.37411 3.69946 3.37411Z" fill="#EDE5E9"/>
<path d="M0 3.30141V0H1.15273C1.35561 0 1.54004 0.0430352 1.70604 0.129106C1.87203 0.215176 2.00421 0.335059 2.10258 0.488757C2.20094 0.642454 2.25012 0.820742 2.25012 1.02362C2.25012 1.2265 2.20094 1.40633 2.10258 1.5631C2.00421 1.7168 1.87203 1.83822 1.70604 1.92736C1.54004 2.01343 1.35561 2.05647 1.15273 2.05647H0.313542V1.5216H1.16656C1.2803 1.5216 1.37559 1.49855 1.45244 1.45244C1.53236 1.40325 1.5923 1.34178 1.63226 1.268C1.67222 1.19115 1.6922 1.10969 1.6922 1.02362C1.6922 0.940626 1.67222 0.86224 1.63226 0.788466C1.5923 0.714691 1.53236 0.654749 1.45244 0.60864C1.37559 0.559457 1.2803 0.534866 1.16656 0.534866H0.567142V3.30141H0Z" fill="#EDE5E9"/>
</svg>
