<svg width="14" height="14" viewBox="0 0 14 14" fill="none" xmlns="http://www.w3.org/2000/svg">
<path d="M6.84429 4.27766C6.84429 3.49016 7.48268 2.85176 8.27019 2.85176C9.05769 2.85176 9.69609 3.49016 9.69609 4.27766C9.69609 5.06516 9.05769 5.70356 8.27019 5.70356C7.48268 5.70356 6.84429 5.06516 6.84429 4.27766Z" fill="#7C8B9D"/>
<path fill-rule="evenodd" clip-rule="evenodd" d="M5.67861 0.570313C4.90118 0.570308 4.28289 0.570304 3.78406 0.611061C3.27324 0.652796 2.83767 0.740096 2.43885 0.943307C1.79493 1.2714 1.2714 1.79493 0.943307 2.43885C0.740096 2.83767 0.652796 3.27324 0.611061 3.78406C0.570304 4.28289 0.570308 4.90118 0.570313 5.67861V8.00996C0.570308 8.78739 0.570304 9.40568 0.611061 9.90451C0.652796 10.4153 0.740096 10.8509 0.943307 11.2497C1.2714 11.8936 1.79493 12.4172 2.43885 12.7453C2.83767 12.9485 3.27324 13.0358 3.78406 13.0775C4.28287 13.1183 4.90114 13.1183 5.67854 13.1183H8.00998C8.78738 13.1183 9.4057 13.1183 9.90451 13.0775C10.4153 13.0358 10.8509 12.9485 11.2497 12.7453C11.8936 12.4172 12.4172 11.8936 12.7453 11.2497C12.9485 10.8509 13.0358 10.4153 13.0775 9.90451C13.1183 9.4057 13.1183 8.78743 13.1183 8.01003V5.67859C13.1183 4.90119 13.1183 4.28287 13.0775 3.78406C13.0358 3.27324 12.9485 2.83767 12.7453 2.43885C12.4172 1.79493 11.8936 1.2714 11.2497 0.943307C10.8509 0.740096 10.4153 0.652796 9.90451 0.611061C9.40568 0.570304 8.78739 0.570308 8.00996 0.570313H5.67861ZM2.95673 1.9597C3.16794 1.85208 3.43668 1.78397 3.87695 1.74799C4.32388 1.71148 4.89557 1.71104 5.70356 1.71104H7.98501C8.793 1.71104 9.36469 1.71148 9.81162 1.74799C10.2519 1.78397 10.5206 1.85208 10.7318 1.9597C11.1611 2.17843 11.5101 2.52744 11.7289 2.95673C11.8365 3.16794 11.9046 3.43668 11.9406 3.87695C11.9771 4.32388 11.9775 4.89557 11.9775 5.70356V7.98501C11.9775 8.18943 11.9775 8.37873 11.9769 8.55471L11.0731 7.6509C10.6276 7.20542 9.90532 7.20542 9.45984 7.6509L8.18666 8.92408C8.07529 9.03545 7.89472 9.03545 7.78335 8.92408L4.22873 5.36945C3.78325 4.92397 3.06099 4.92397 2.61551 5.36945L1.71104 6.27392V5.70356C1.71104 4.89557 1.71148 4.32388 1.74799 3.87695C1.78397 3.43668 1.85208 3.16794 1.9597 2.95673C2.17843 2.52744 2.52744 2.17843 2.95673 1.9597Z" fill="#7C8B9D"/>
<path d="M6.84429 4.27766C6.84429 3.49016 7.48268 2.85176 8.27019 2.85176C9.05769 2.85176 9.69609 3.49016 9.69609 4.27766C9.69609 5.06516 9.05769 5.70356 8.27019 5.70356C7.48268 5.70356 6.84429 5.06516 6.84429 4.27766Z" stroke="#7C8B9D" stroke-width="0.571502"/>
<path fill-rule="evenodd" clip-rule="evenodd" d="M5.67861 0.570313C4.90118 0.570308 4.28289 0.570304 3.78406 0.611061C3.27324 0.652796 2.83767 0.740096 2.43885 0.943307C1.79493 1.2714 1.2714 1.79493 0.943307 2.43885C0.740096 2.83767 0.652796 3.27324 0.611061 3.78406C0.570304 4.28289 0.570308 4.90118 0.570313 5.67861V8.00996C0.570308 8.78739 0.570304 9.40568 0.611061 9.90451C0.652796 10.4153 0.740096 10.8509 0.943307 11.2497C1.2714 11.8936 1.79493 12.4172 2.43885 12.7453C2.83767 12.9485 3.27324 13.0358 3.78406 13.0775C4.28287 13.1183 4.90114 13.1183 5.67854 13.1183H8.00998C8.78738 13.1183 9.4057 13.1183 9.90451 13.0775C10.4153 13.0358 10.8509 12.9485 11.2497 12.7453C11.8936 12.4172 12.4172 11.8936 12.7453 11.2497C12.9485 10.8509 13.0358 10.4153 13.0775 9.90451C13.1183 9.4057 13.1183 8.78743 13.1183 8.01003V5.67859C13.1183 4.90119 13.1183 4.28287 13.0775 3.78406C13.0358 3.27324 12.9485 2.83767 12.7453 2.43885C12.4172 1.79493 11.8936 1.2714 11.2497 0.943307C10.8509 0.740096 10.4153 0.652796 9.90451 0.611061C9.40568 0.570304 8.78739 0.570308 8.00996 0.570313H5.67861ZM2.95673 1.9597C3.16794 1.85208 3.43668 1.78397 3.87695 1.74799C4.32388 1.71148 4.89557 1.71104 5.70356 1.71104H7.98501C8.793 1.71104 9.36469 1.71148 9.81162 1.74799C10.2519 1.78397 10.5206 1.85208 10.7318 1.9597C11.1611 2.17843 11.5101 2.52744 11.7289 2.95673C11.8365 3.16794 11.9046 3.43668 11.9406 3.87695C11.9771 4.32388 11.9775 4.89557 11.9775 5.70356V7.98501C11.9775 8.18943 11.9775 8.37873 11.9769 8.55471L11.0731 7.6509C10.6276 7.20542 9.90532 7.20542 9.45984 7.6509L8.18666 8.92408C8.07529 9.03545 7.89472 9.03545 7.78335 8.92408L4.22873 5.36945C3.78325 4.92397 3.06099 4.92397 2.61551 5.36945L1.71104 6.27392V5.70356C1.71104 4.89557 1.71148 4.32388 1.74799 3.87695C1.78397 3.43668 1.85208 3.16794 1.9597 2.95673C2.17843 2.52744 2.52744 2.17843 2.95673 1.9597Z" stroke="#7C8B9D" stroke-width="0.571502"/>
</svg>
