<svg width="6" height="6" viewBox="0 0 6 6" fill="none" xmlns="http://www.w3.org/2000/svg">
<path d="M5.22367 1.58127C5.22367 2.08621 5.22718 2.59103 5.22198 3.09596C5.21973 3.31131 5.18513 3.52421 5.09596 3.72917C4.99948 3.95094 4.85532 4.1489 4.67276 4.32772C4.46137 4.5349 4.21721 4.71127 3.93831 4.8546C3.64619 5.0047 3.33353 5.11419 3.00358 5.19134C2.9649 5.20044 2.92651 5.21048 2.88797 5.21982C2.85042 5.22881 2.83298 5.21819 2.83312 5.18434C2.83326 5.14033 2.82819 5.09621 2.82819 5.05221C2.82862 4.75924 2.82988 4.46615 2.8303 4.17318C2.8303 4.13816 2.82876 4.10292 2.82369 4.06813C2.81582 4.01292 2.8476 3.98176 2.90667 3.96483C3.07193 3.91745 3.22819 3.85465 3.37474 3.77551C3.66729 3.61759 3.86771 3.40364 3.96236 3.12164C4.01721 2.95811 4.0286 2.79225 4.04 2.62394C4.05856 2.35245 4.0445 2.0813 4.05111 1.81004C4.05251 1.75238 4.05068 1.7518 3.98782 1.7783C3.62087 1.93295 3.25407 2.08772 2.88741 2.24261C2.83016 2.26677 2.82454 2.26467 2.82454 2.20958C2.82412 1.96949 2.81399 1.72904 2.82749 1.48941C2.83973 1.27231 2.94901 1.08719 3.15393 0.943273C3.41933 0.756636 3.72664 0.62871 4.03324 0.498799C4.31482 0.37951 4.5947 0.257419 4.87543 0.136846C4.9698 0.0963442 5.06446 0.0565423 5.15911 0.0165069C5.2217 -0.00987207 5.22381 -0.00882158 5.22395 0.0507062L5.22367 1.58127ZM1.17758 2.26572C1.17758 2.41746 1.17097 2.56955 1.17899 2.72105C1.19488 3.02359 1.2877 3.30699 1.5268 3.54429C1.63819 3.65494 1.77335 3.74575 1.92609 3.81648C2.06013 3.87858 2.19979 3.93087 2.34395 3.97441C2.38024 3.98538 2.39613 4.00289 2.39613 4.03697C2.39669 4.41818 2.3981 4.79939 2.4019 5.1806C2.40232 5.22472 2.37489 5.23044 2.33959 5.22087C2.13355 5.16508 1.9223 5.12306 1.72497 5.04439C1.5358 4.96899 1.34959 4.89102 1.17561 4.79297C0.923995 4.65115 0.706135 4.48039 0.513451 4.28523C0.323861 4.09323 0.182372 3.87998 0.0891238 3.64525C0.0526967 3.55363 0.0225985 3.45838 0.0168321 3.36139C-0.0141099 2.84688 0.00783072 2.3319 0.00403329 1.81716C-0.000186076 1.22936 0.00318948 0.641432 0.00333013 0.0536242C0.00333013 0.0122271 0.0266303 0.00117753 0.0732308 0.0204754C0.342708 0.132878 0.610637 0.247615 0.875895 0.366787C1.09685 0.466 1.32357 0.556342 1.54621 0.652988C1.76182 0.746481 1.96519 0.855499 2.14002 0.997665C2.27771 1.1096 2.35028 1.24768 2.37757 1.40467C2.41301 1.60917 2.40949 1.81483 2.40021 2.02003C2.39698 2.08983 2.39065 2.15974 2.39022 2.22989C2.39022 2.2544 2.3815 2.26257 2.35267 2.25043C2.30246 2.22942 2.2507 2.21087 2.2012 2.18892C2.01442 2.10593 1.82413 2.02831 1.63594 1.94766C1.50134 1.89 1.36464 1.83572 1.23229 1.77491C1.18433 1.75297 1.17659 1.75729 1.17688 1.79989C1.17828 1.95525 1.17758 2.11037 1.17758 2.26572Z" fill="#EDE5E9"/>
</svg>
