<svg width="171" height="174" viewBox="0 0 171 174" fill="none" xmlns="http://www.w3.org/2000/svg">
<path d="M47.0189 13.1031C47.9448 1.56496 61.5324 -4.09206 70.3729 3.37996L97.9751 26.7092C101.426 29.6259 106.058 30.729 110.453 29.6809L145.608 21.2981C156.867 18.6132 166.446 29.7876 162.072 40.5045L148.414 73.9648C146.706 78.1482 147.088 82.894 149.443 86.7502L168.279 117.594C174.312 127.473 166.645 140.036 155.101 139.187L119.058 136.538C114.551 136.206 110.156 138.036 107.216 141.468L83.7025 168.913C76.1714 177.703 61.8538 174.294 59.0935 163.052L50.4755 127.954C49.3981 123.566 46.2993 119.951 42.1275 118.216L8.75943 104.334C-1.92791 99.8881 -3.10928 85.2175 6.72893 79.1186L37.4459 60.0765C41.2862 57.6958 43.7666 53.6317 44.128 49.1278L47.0189 13.1031Z" fill="url(#paint0_linear_9881_759)"/>
<defs>
<linearGradient id="paint0_linear_9881_759" x1="49.233" y1="-14.4875" x2="132.114" y2="184.584" gradientUnits="userSpaceOnUse">
<stop stop-color="#6B0330"/>
<stop offset="1" stop-color="#F569A5"/>
</linearGradient>
</defs>
</svg>
