<svg width="5" height="5" viewBox="0 0 5 5" fill="none" xmlns="http://www.w3.org/2000/svg">
<g clip-path="url(#clip0_11807_1306)">
<path d="M2.41104 0.541809L2.70245 1.15685C2.75021 1.25753 2.84243 1.32731 2.94914 1.34348L3.60084 1.44211C3.86953 1.48277 3.97682 1.82663 3.78238 2.02402L3.31066 2.5027C3.23346 2.58108 3.19824 2.69402 3.21645 2.80471L3.32777 3.48068C3.37371 3.75939 3.09279 3.97189 2.85253 3.84034L2.26963 3.52136C2.17419 3.46909 2.06016 3.46909 1.96471 3.52136L1.3818 3.84055C1.14155 3.9721 0.860623 3.75936 0.906571 3.48089L1.01788 2.80492C1.03619 2.69417 1.00093 2.58114 0.923679 2.5027L0.452083 2.02397C0.25763 1.82657 0.364932 1.48272 0.633619 1.44206L1.28532 1.34342C1.39203 1.32726 1.48425 1.25747 1.53201 1.15679L1.8233 0.541817C1.9436 0.28815 2.29074 0.288141 2.41104 0.541809Z" fill="#EDE5E9"/>
</g>
<defs>
<clipPath id="clip0_11807_1306">
<rect width="4.23467" height="4.23467" fill="white"/>
</clipPath>
</defs>
</svg>
