<svg width="11" height="11" viewBox="0 0 11 11" fill="none" xmlns="http://www.w3.org/2000/svg">
<path d="M2.7108 5.22483C2.7108 4.83938 2.73269 4.43064 2.77674 4.0191H0.972329C0.861313 4.41064 0.80382 4.81621 0.80382 5.22483C0.80382 5.63345 0.861313 6.03901 0.972329 6.43056H2.77674C2.73269 6.01901 2.7108 5.61028 2.7108 5.22483ZM3.71191 7.23438C3.83635 7.85921 4.0177 8.43143 4.25616 8.86557C4.55735 9.41389 4.88762 9.64584 5.22483 9.64584C5.56204 9.64584 5.89231 9.41389 6.19349 8.86557C6.43195 8.43143 6.6133 7.85921 6.73775 7.23438H3.71191ZM1.28841 7.23438C1.4985 7.6459 1.77078 8.02341 2.09851 8.35114C2.50904 8.76167 2.99657 9.08717 3.53293 9.30934C3.55451 9.31828 3.57665 9.32587 3.59835 9.33446C3.58252 9.30728 3.5664 9.27987 3.55125 9.2523C3.23959 8.68477 3.02622 7.96732 2.89239 7.23438H1.28841ZM7.55727 7.23438C7.42344 7.96732 7.21007 8.68477 6.89841 9.2523C6.88322 9.27995 6.86666 9.3072 6.85079 9.33446C6.87264 9.32582 6.895 9.31834 6.91672 9.30934C7.45309 9.08717 7.94062 8.76167 8.35114 8.35114C8.67888 8.02341 8.95116 7.6459 9.16124 7.23438H7.55727ZM6.89841 1.19736C7.21007 1.76489 7.42344 2.48234 7.55727 3.21528H9.16124C8.95116 2.80375 8.67888 2.42625 8.35114 2.09851C7.94062 1.68799 7.45309 1.36249 6.91672 1.14031C6.89494 1.13129 6.8727 1.12334 6.85079 1.11467C6.86674 1.14206 6.88315 1.16958 6.89841 1.19736ZM5.22483 0.80382C4.88762 0.80382 4.55735 1.03577 4.25616 1.58409C4.0177 2.01823 3.83635 2.59044 3.71191 3.21528H6.73775C6.6133 2.59044 6.43195 2.01823 6.19349 1.58409C5.89231 1.03577 5.56204 0.80382 5.22483 0.80382ZM3.53293 1.14031C2.99656 1.36249 2.50904 1.68799 2.09851 2.09851C1.77078 2.42625 1.4985 2.80375 1.28841 3.21528H2.89239C3.02622 2.48234 3.23959 1.76489 3.55125 1.19736C3.56647 1.16965 3.58244 1.14199 3.59835 1.11467C3.57659 1.12328 3.55457 1.13135 3.53293 1.14031ZM3.51462 5.22483C3.51462 5.60863 3.5389 6.0189 3.58631 6.43056H6.86334C6.91076 6.0189 6.93504 5.60863 6.93504 5.22483C6.93504 4.84102 6.91076 4.43075 6.86334 4.0191H3.58631C3.5389 4.43075 3.51462 4.84102 3.51462 5.22483ZM7.73886 5.22483C7.73886 5.61028 7.71697 6.01901 7.67292 6.43056H9.47733C9.58835 6.03901 9.64584 5.63345 9.64584 5.22483C9.64584 4.81621 9.58835 4.41064 9.47733 4.0191H7.67292C7.71697 4.43064 7.73886 4.83938 7.73886 5.22483ZM10.4497 5.22483C10.4497 5.78975 10.3565 6.34959 10.1775 6.88375C10.1703 6.94008 10.1511 6.99211 10.1231 7.03866C10.1001 7.10076 10.0773 7.16315 10.0519 7.22444C9.78936 7.85829 9.40461 8.43433 8.91947 8.91947C8.43433 9.40461 7.85829 9.78936 7.22444 10.0519C6.59053 10.3145 5.91096 10.4497 5.22483 10.4497C4.53869 10.4497 3.85913 10.3145 3.22522 10.0519C2.59137 9.78936 2.01532 9.40461 1.53019 8.91947C1.04505 8.43433 0.660294 7.85829 0.397723 7.22444C0.372337 7.16315 0.349549 7.10076 0.326552 7.03866C0.298535 6.99211 0.279318 6.94008 0.272127 6.88375C0.0932061 6.34959 0 5.78975 0 5.22483C0 4.65974 0.0931022 4.09969 0.272127 3.56538C0.279387 3.50909 0.298493 3.45698 0.326552 3.41048C0.349498 3.34853 0.3724 3.28636 0.397723 3.22522C0.660294 2.59137 1.04505 2.01533 1.53019 1.53019C2.01533 1.04505 2.59137 0.660294 3.22522 0.397723C3.85913 0.135151 4.53869 0 5.22483 0C5.91096 0 6.59053 0.135151 7.22444 0.397723C7.85829 0.660294 8.43433 1.04505 8.91947 1.53019C9.40461 2.01532 9.78936 2.59137 10.0519 3.22522C10.0773 3.28636 10.1002 3.34853 10.1231 3.41048C10.1512 3.45698 10.1703 3.50909 10.1775 3.56538C10.3566 4.09969 10.4497 4.65974 10.4497 5.22483Z" fill="#952A58"/>
</svg>
