<svg width="15" height="12" viewBox="0 0 15 12" fill="none" xmlns="http://www.w3.org/2000/svg">
<path d="M14 11.5V0.5C14 0.223858 14.2239 0 14.5 0C14.7761 0 15 0.223858 15 0.5V11.5C15 11.7761 14.7761 12 14.5 12C14.2239 12 14 11.7761 14 11.5ZM6.37012 0.930664C6.56624 0.736526 6.88285 0.737734 7.07715 0.933594L11.7441 5.64844C11.9369 5.84327 11.9369 6.15673 11.7441 6.35156L7.07715 11.0664C6.88285 11.2623 6.56624 11.2635 6.37012 11.0693C6.17419 10.875 6.17303 10.5584 6.36719 10.3623L10.1904 6.5H0.5C0.223858 6.5 0 6.27614 0 6C0 5.72386 0.223858 5.5 0.5 5.5H10.1904L6.36719 1.6377C6.17303 1.44155 6.17419 1.12496 6.37012 0.930664Z" fill="#952A58"/>
</svg>
