<svg width="37" height="37" viewBox="0 0 37 37" fill="none" xmlns="http://www.w3.org/2000/svg">
<path d="M11.6512 26.1832C12.1547 26.5388 12.7547 26.728 13.3692 26.7259V26.7177C13.9493 26.7192 14.5171 26.5501 15.0019 26.2314C15.4868 25.9127 15.8673 25.4584 16.0961 24.9251L17.3558 21.0933C17.6466 20.2251 18.1353 19.4366 18.7834 18.7901C19.4314 18.1436 20.221 17.6568 21.0896 17.3683L24.7434 16.1801C25.3329 15.9743 25.8424 15.5874 26.1992 15.0747C26.5559 14.562 26.7416 13.9497 26.7297 13.3251C26.7179 12.7005 26.5091 12.0957 26.1332 11.5969C25.7573 11.0981 25.2335 10.7308 24.6365 10.5475L21.0301 9.37575C20.1579 9.08493 19.3654 8.59484 18.7155 7.94435C18.0656 7.29386 17.5762 6.50085 17.2859 5.6282L16.0982 1.97521C15.891 1.39339 15.5078 0.89057 15.0019 0.536608C14.496 0.182645 13.8924 -0.00487691 13.275 9.64248e-05C12.6576 0.00506976 12.0571 0.202292 11.557 0.564359C11.0568 0.926427 10.6818 1.43536 10.484 2.02044L9.28598 5.70426C8.99668 6.55153 8.51905 7.32214 7.88904 7.95808C7.25903 8.59402 6.49303 9.07873 5.64871 9.37575L1.99705 10.5475C1.41096 10.7504 0.903138 11.1318 0.544948 11.6383C0.186758 12.1448 -0.00379746 12.7508 5.73517e-05 13.3712C0.00391217 13.9916 0.201984 14.5952 0.56644 15.0972C0.930895 15.5992 1.44342 15.9743 2.03198 16.1699L5.63637 17.3396C6.50844 17.6324 7.30057 18.1239 7.95032 18.7753C8.60007 19.4268 9.08966 20.2202 9.38051 21.0933L10.5683 24.7421C10.7717 25.3239 11.1498 25.8276 11.6512 26.1832ZM27.4066 36.5563C27.0144 36.2768 26.7198 35.8814 26.5641 35.4256L25.89 33.3576C25.7593 32.964 25.5389 32.6062 25.246 32.3125C24.9532 32.0189 24.5961 31.7975 24.2029 31.6658L22.1664 31.0018C21.7006 30.8439 21.2956 30.5446 21.0079 30.1455C20.7202 29.7464 20.5642 29.2675 20.5615 28.7754C20.5609 28.2862 20.7134 27.8091 20.9975 27.411C21.2817 27.0128 21.6832 26.7136 22.1459 26.5553L24.2132 25.8851C24.5977 25.7484 24.9458 25.5254 25.2308 25.2332C25.5158 24.941 25.73 24.5874 25.8571 24.1994L26.523 22.1622C26.6796 21.7013 26.9755 21.3004 27.3698 21.0149C27.7641 20.7295 28.2373 20.5736 28.7239 20.5689C29.2106 20.5642 29.6867 20.7108 30.0865 20.9885C30.4862 21.2662 30.7899 21.6612 30.9555 22.1191L31.6316 24.2036C31.7639 24.5943 31.985 24.9491 32.2773 25.2401C32.5697 25.5311 32.9254 25.7505 33.3166 25.881L35.3552 26.545C35.8251 26.692 36.2368 26.9833 36.532 27.3775C36.8271 27.7717 36.9907 28.2489 36.9996 28.7414C37.0085 29.2339 36.8622 29.7166 36.5814 30.1212C36.3006 30.5258 35.8996 30.8317 35.4353 30.9956L33.3516 31.6719C32.9598 31.8042 32.604 32.0257 32.3123 32.3189C32.0206 32.6122 31.801 32.9691 31.6706 33.3617L31.0089 35.3948C30.8486 35.8676 30.5445 36.2788 30.1356 36.5666C29.7366 36.8503 29.2589 37.0018 28.7694 37C28.28 36.9981 27.8034 36.843 27.4066 36.5563Z" fill="#952A58"/>
</svg>
