<svg width="33" height="32" viewBox="0 0 33 32" fill="none" xmlns="http://www.w3.org/2000/svg">
<path fill-rule="evenodd" clip-rule="evenodd" d="M12.1788 0.55909C15.4237 -0.295301 18.8604 -0.167963 22.0286 0.924053C25.1968 2.01607 27.9453 4.02064 29.9062 6.66936V3.49922C29.9062 3.10138 30.0692 2.71983 30.3593 2.43851C30.6494 2.1572 31.0428 1.99915 31.4531 1.99915C31.8634 1.99915 32.2568 2.1572 32.5469 2.43851C32.837 2.71983 33 3.10138 33 3.49922V11.9996H24.2343C23.824 11.9996 23.4306 11.8415 23.1405 11.5602C22.8504 11.2789 22.6874 10.8974 22.6874 10.4995C22.6874 10.1017 22.8504 9.72014 23.1405 9.43882C23.4306 9.1575 23.824 8.99946 24.2343 8.99946H27.7963C26.1806 6.54833 23.7639 4.6935 20.9327 3.73169C18.1015 2.76989 15.0195 2.75669 12.1797 3.69422C9.33986 4.63174 6.90635 6.46581 5.26845 8.90301C3.63055 11.3402 2.88293 14.2397 3.14517 17.1376C3.40742 20.0356 4.66438 22.7645 6.71498 24.8878C8.76557 27.0111 11.4913 28.4061 14.4561 28.8497C17.4209 29.2933 20.4535 28.7597 23.0686 27.3345C25.6838 25.9092 27.7304 23.6745 28.8811 20.988C28.9558 20.8017 29.0682 20.6318 29.2115 20.4882C29.3549 20.3447 29.5264 20.2303 29.7159 20.1519C29.9055 20.0735 30.1093 20.0326 30.3154 20.0316C30.5214 20.0307 30.7256 20.0696 30.916 20.1463C31.1063 20.2229 31.2789 20.3356 31.4237 20.4779C31.5685 20.6201 31.6825 20.7889 31.7591 20.9745C31.8356 21.16 31.8732 21.3585 31.8695 21.5583C31.8658 21.7582 31.821 21.9552 31.7377 22.138C30.6628 24.6472 28.9466 26.8496 26.751 28.5376C24.5554 30.2256 21.9526 31.3436 19.1881 31.7863C16.4237 32.2289 13.5885 31.9815 10.9498 31.0676C8.31118 30.1536 5.95601 28.6031 4.10633 26.5621C2.25664 24.5212 0.97337 22.0572 0.377473 19.4022C-0.218423 16.7473 -0.107313 13.9889 0.700331 11.3871C1.50798 8.78537 2.98555 6.42589 4.99377 4.53112C7.00199 2.63634 9.4747 1.27069 12.1788 0.55909Z" fill="#952A58"/>
</svg>
